<svg width="43" height="44" fill="none" xmlns="http://www.w3.org/2000/svg"><path d="M21.21 14.579c-3.895 0-7.073 3.277-7.073 7.293 0 4.017 3.178 7.294 7.073 7.294 3.894 0 7.072-3.277 7.072-7.294 0-4.016-3.178-7.293-7.072-7.293zm21.213 7.293c0-3.02.026-6.013-.138-9.028-.164-3.502-.94-6.61-3.422-9.17-2.489-2.567-5.497-3.36-8.893-3.53-2.93-.17-5.831-.142-8.755-.142-2.929 0-5.831-.028-8.755.142-3.396.17-6.41.968-8.893 3.53C1.08 6.238.31 9.341.145 12.843c-.165 3.02-.138 6.014-.138 9.028 0 3.015-.027 6.014.138 9.029.164 3.502.939 6.61 3.422 9.17 2.489 2.567 5.497 3.36 8.893 3.53 2.929.17 5.831.142 8.755.142 2.929 0 5.831.028 8.755-.142 3.396-.17 6.41-.968 8.893-3.53 2.488-2.566 3.258-5.668 3.422-9.17.17-3.015.138-6.008.138-9.029zM21.21 33.095c-6.023 0-10.883-5.012-10.883-11.223 0-6.21 4.86-11.222 10.883-11.222 6.022 0 10.882 5.012 10.882 11.222s-4.86 11.223-10.882 11.223zm11.328-20.284c-1.406 0-2.542-1.17-2.542-2.62 0-1.45 1.136-2.622 2.542-2.622S35.08 8.74 35.08 10.19c0 .344-.066.686-.193 1.004a2.624 2.624 0 0 1-.551.85 2.535 2.535 0 0 1-.825.569c-.309.131-.64.199-.973.198z" fill="#414479"/></svg>