<svg width="226" height="428" fill="none" xmlns="http://www.w3.org/2000/svg"><rect width="9" height="230.415" rx="4.5" transform="matrix(-1 0 0 1 220.083 196.621)" fill="#FBFBFB"/><rect width="8.571" height="212.903" rx="4.286" transform="matrix(0 -1 -1 0 220.083 201.229)" fill="#FBFBFB"/><rect width="9" height="230.415" rx="4.5" transform="matrix(-1 0 0 1 12.826 196.621)" fill="#FBFBFB"/><rect width="9" height="69.124" rx="4.5" transform="matrix(-1 0 0 1 117.664 0)" fill="#FBFBFB"/><rect width="4" height="44.762" rx="2" transform="matrix(-1 0 0 1 142 270.353)" fill="#FBFBFB"/><rect width="4" height="43.809" rx="2" transform="matrix(-1 0 0 1 87 271.306)" fill="#FBFBFB"/><rect width="4" height="49.923" rx="2" transform="matrix(-1 0 0 1 114 259.877)" fill="#FBFBFB"/><rect width="3.818" height="30.587" rx="1.909" transform="matrix(.21198 -.97728 -.9812 -.19304 141.206 316.133)" fill="#FBFBFB"/><rect width="3.818" height="30.587" rx="1.909" transform="matrix(-.21198 -.97728 .9812 -.19304 84.427 316.133)" fill="#FBFBFB"/><rect width="3.386" height="19.113" rx="1.693" transform="matrix(-.57763 -.8163 -.83177 .55512 127.753 252.246)" fill="#FBFBFB"/><rect width="3.386" height="19.113" rx="1.693" transform="matrix(.57763 -.8163 .83177 .55512 96.824 252.246)" fill="#FBFBFB"/><rect width="8.571" height="64.516" rx="4.286" transform="matrix(0 -1 -1 0 145 29.4)" fill="#FBFBFB"/><path d="m216 199.401-4.787-20.446-10.08-19.585-11.291-18.049-12.097-17.281-15.322-18.817-15.726-14.977-17.339-14.977L112.423 64.9" stroke="#FBFBFB" stroke-width="9"/><path d="m8.5 199.877 7.551-20.387 10.08-19.585 11.291-18.049 12.097-17.282 15.323-18.817L80.567 90.78l17.34-14.977L115.647 64.9" stroke="#FBFBFB" stroke-width="9"/><path d="m140.291 272.938-2.151-5.497-2.667-4.601-2.987-4.241-3.201-4.06-4.054-4.42-4.161-3.519-4.587-3.518-4.481-2.436" stroke="#FBFBFB" stroke-width="4"/><path d="m85.124 273.126 1.38-5.559 2.667-4.602 2.987-4.24 3.2-4.06 4.055-4.421 4.16-3.518 4.588-3.519 4.694-2.561" stroke="#FBFBFB" stroke-width="4"/></svg>