<svg width="43" height="44" fill="none" xmlns="http://www.w3.org/2000/svg"><path d="M21.217.125C9.503.125.005 9.92.005 22s9.498 21.875 21.212 21.875S42.43 34.08 42.43 22 32.931.125 21.217.125zm10.195 16.49c.014.229.014.468.014.702 0 7.168-5.294 15.425-14.967 15.425-2.983 0-5.748-.893-8.078-2.431.426.048.834.068 1.27.068 2.461 0 4.725-.86 6.529-2.315-2.311-.048-4.252-1.61-4.915-3.76.81.123 1.539.123 2.372-.097a5.23 5.23 0 0 1-3.027-1.886 5.526 5.526 0 0 1-1.182-3.436v-.069a5.142 5.142 0 0 0 2.372.689 5.37 5.37 0 0 1-1.72-1.953 5.561 5.561 0 0 1-.624-2.559c0-1.01.256-1.933.715-2.734a15.024 15.024 0 0 0 4.837 4.024 14.574 14.574 0 0 0 6.006 1.645c-.744-3.687 1.927-6.67 5.137-6.67 1.515 0 2.879.654 3.84 1.709a10.199 10.199 0 0 0 3.338-1.304 5.37 5.37 0 0 1-2.31 2.983c1.06-.117 2.083-.42 3.03-.844a11.217 11.217 0 0 1-2.637 2.812z" fill="#414479"/></svg>